<mxfile host="app.diagrams.net" modified="2023-10-31T07:14:53.488Z" agent="Mozilla/5.0 (Macintosh; Intel Mac OS X 10_15_7) AppleWebKit/537.36 (KHTML, like Gecko) Chrome/118.0.0.0 Safari/537.36" etag="5JhFvOWmBA9AduY7hErz" version="22.0.8" type="device">
  <diagram name="Page-1" id="sl67Yf3QK5midu7BMx_2">
    <mxGraphModel dx="940" dy="1694" grid="1" gridSize="10" guides="1" tooltips="1" connect="1" arrows="1" fold="1" page="1" pageScale="1" pageWidth="827" pageHeight="1169" math="0" shadow="0">
      <root>
        <mxCell id="0" />
        <mxCell id="1" parent="0" />
        <mxCell id="rqSLdbDPakVJmyCNbUR--63" value="" style="group" vertex="1" connectable="0" parent="1">
          <mxGeometry x="305" y="799" width="540" height="421" as="geometry" />
        </mxCell>
        <mxCell id="rqSLdbDPakVJmyCNbUR--52" value="" style="group" vertex="1" connectable="0" parent="rqSLdbDPakVJmyCNbUR--63">
          <mxGeometry y="-9" width="540" height="421" as="geometry" />
        </mxCell>
        <mxCell id="rqSLdbDPakVJmyCNbUR--43" value="" style="rounded=0;whiteSpace=wrap;html=1;" vertex="1" parent="rqSLdbDPakVJmyCNbUR--52">
          <mxGeometry y="3.0433734939759036" width="540" height="415.9277108433735" as="geometry" />
        </mxCell>
        <mxCell id="rqSLdbDPakVJmyCNbUR--99" value="" style="shape=note;whiteSpace=wrap;html=1;backgroundOutline=1;darkOpacity=0.05;" vertex="1" parent="rqSLdbDPakVJmyCNbUR--52">
          <mxGeometry x="65" y="25.5" width="195" height="274.5" as="geometry" />
        </mxCell>
        <mxCell id="rqSLdbDPakVJmyCNbUR--38" value="Model Artifact" style="sketch=0;outlineConnect=0;fontColor=#232F3E;gradientColor=none;strokeColor=#ffffff;fillColor=#232F3E;dashed=0;verticalLabelPosition=middle;verticalAlign=bottom;align=center;html=1;whiteSpace=wrap;fontSize=10;fontStyle=1;spacing=3;shape=mxgraph.aws4.productIcon;prIcon=mxgraph.aws4.s3;" vertex="1" parent="rqSLdbDPakVJmyCNbUR--52">
          <mxGeometry x="108" y="35.506024096385545" width="90" height="111.59036144578313" as="geometry" />
        </mxCell>
        <mxCell id="rqSLdbDPakVJmyCNbUR--39" value="Flask Web Framework" style="rounded=0;whiteSpace=wrap;html=1;" vertex="1" parent="rqSLdbDPakVJmyCNbUR--52">
          <mxGeometry x="87" y="184.6313253012048" width="120" height="60.86746987951807" as="geometry" />
        </mxCell>
        <mxCell id="rqSLdbDPakVJmyCNbUR--40" value="" style="edgeStyle=orthogonalEdgeStyle;rounded=0;orthogonalLoop=1;jettySize=auto;html=1;" edge="1" parent="rqSLdbDPakVJmyCNbUR--52" source="rqSLdbDPakVJmyCNbUR--38" target="rqSLdbDPakVJmyCNbUR--39">
          <mxGeometry relative="1" as="geometry" />
        </mxCell>
        <mxCell id="rqSLdbDPakVJmyCNbUR--45" value="&lt;font style=&quot;font-size: 17px;&quot;&gt;Model &lt;br&gt;Prediction&lt;/font&gt;" style="text;html=1;strokeColor=none;fillColor=none;align=center;verticalAlign=middle;whiteSpace=wrap;rounded=0;" vertex="1" parent="rqSLdbDPakVJmyCNbUR--52">
          <mxGeometry x="339" y="15.216867469879517" width="124" height="30.433734939759034" as="geometry" />
        </mxCell>
        <mxCell id="rqSLdbDPakVJmyCNbUR--48" value="" style="endArrow=classic;startArrow=classic;html=1;rounded=0;entryX=0.5;entryY=1;entryDx=0;entryDy=0;exitX=0.5;exitY=1;exitDx=0;exitDy=0;" edge="1" parent="rqSLdbDPakVJmyCNbUR--52" target="rqSLdbDPakVJmyCNbUR--39">
          <mxGeometry width="50" height="50" relative="1" as="geometry">
            <mxPoint x="147" y="294.19277108433744" as="sourcePoint" />
            <mxPoint x="191" y="228.25301204819277" as="targetPoint" />
          </mxGeometry>
        </mxCell>
        <mxCell id="rqSLdbDPakVJmyCNbUR--50" value="9696" style="text;html=1;strokeColor=none;fillColor=none;align=center;verticalAlign=middle;whiteSpace=wrap;rounded=0;" vertex="1" parent="rqSLdbDPakVJmyCNbUR--52">
          <mxGeometry x="96" y="238.3975903614458" width="60" height="30.433734939759034" as="geometry" />
        </mxCell>
        <mxCell id="rqSLdbDPakVJmyCNbUR--53" value="AWS Elastic BeanStalk" style="ellipse;shape=cloud;whiteSpace=wrap;html=1;" vertex="1" parent="rqSLdbDPakVJmyCNbUR--52">
          <mxGeometry x="37" y="334.7710843373494" width="210" height="81.1566265060241" as="geometry" />
        </mxCell>
        <mxCell id="rqSLdbDPakVJmyCNbUR--55" value="User" style="shape=umlActor;verticalLabelPosition=bottom;verticalAlign=top;html=1;outlineConnect=0;" vertex="1" parent="rqSLdbDPakVJmyCNbUR--52">
          <mxGeometry x="477" y="334.7710843373494" width="30" height="60.86746987951807" as="geometry" />
        </mxCell>
        <mxCell id="rqSLdbDPakVJmyCNbUR--56" value="User" style="shape=umlActor;verticalLabelPosition=bottom;verticalAlign=top;html=1;outlineConnect=0;" vertex="1" parent="rqSLdbDPakVJmyCNbUR--52">
          <mxGeometry x="437" y="285.06265060240963" width="30" height="60.86746987951807" as="geometry" />
        </mxCell>
        <mxCell id="rqSLdbDPakVJmyCNbUR--57" value="User" style="shape=umlActor;verticalLabelPosition=bottom;verticalAlign=top;html=1;outlineConnect=0;" vertex="1" parent="rqSLdbDPakVJmyCNbUR--52">
          <mxGeometry x="487" y="239.4120481927711" width="30" height="60.86746987951807" as="geometry" />
        </mxCell>
        <mxCell id="rqSLdbDPakVJmyCNbUR--62" value="" style="edgeStyle=orthogonalEdgeStyle;rounded=0;orthogonalLoop=1;jettySize=auto;html=1;entryX=0.117;entryY=1.122;entryDx=0;entryDy=0;entryPerimeter=0;" edge="1" parent="rqSLdbDPakVJmyCNbUR--52" source="rqSLdbDPakVJmyCNbUR--56" target="rqSLdbDPakVJmyCNbUR--97">
          <mxGeometry relative="1" as="geometry">
            <mxPoint x="382" y="315.4963855421687" as="targetPoint" />
          </mxGeometry>
        </mxCell>
        <mxCell id="rqSLdbDPakVJmyCNbUR--97" value="Port: 80" style="text;html=1;strokeColor=none;fillColor=none;align=center;verticalAlign=middle;whiteSpace=wrap;rounded=0;" vertex="1" parent="rqSLdbDPakVJmyCNbUR--52">
          <mxGeometry x="223" y="337.8144578313253" width="60" height="30.433734939759034" as="geometry" />
        </mxCell>
        <mxCell id="rqSLdbDPakVJmyCNbUR--98" value="" style="image;sketch=0;aspect=fixed;html=1;points=[];align=center;fontSize=12;image=img/lib/mscae/Docker.svg;" vertex="1" parent="rqSLdbDPakVJmyCNbUR--52">
          <mxGeometry x="197" y="264.83" width="59.96" height="49.17" as="geometry" />
        </mxCell>
        <mxCell id="rqSLdbDPakVJmyCNbUR--54" value="" style="endArrow=classic;startArrow=classic;html=1;rounded=0;entryX=0.5;entryY=1;entryDx=0;entryDy=0;exitX=0.5;exitY=1;exitDx=0;exitDy=0;" edge="1" parent="rqSLdbDPakVJmyCNbUR--63">
          <mxGeometry width="50" height="50" relative="1" as="geometry">
            <mxPoint x="148" y="344.9156626506024" as="sourcePoint" />
            <mxPoint x="148" y="296.2216867469879" as="targetPoint" />
          </mxGeometry>
        </mxCell>
        <mxCell id="rqSLdbDPakVJmyCNbUR--64" value="" style="rounded=0;whiteSpace=wrap;html=1;" vertex="1" parent="1">
          <mxGeometry x="270" y="-5" width="1140" height="650" as="geometry" />
        </mxCell>
        <mxCell id="rqSLdbDPakVJmyCNbUR--1" value="CSV Dataset" style="shape=cylinder3;whiteSpace=wrap;html=1;boundedLbl=1;backgroundOutline=1;size=15;" vertex="1" parent="1">
          <mxGeometry x="340" y="10" width="190" height="70" as="geometry" />
        </mxCell>
        <mxCell id="rqSLdbDPakVJmyCNbUR--2" value="" style="endArrow=classic;html=1;rounded=0;exitX=0.5;exitY=1;exitDx=0;exitDy=0;exitPerimeter=0;" edge="1" parent="1" source="rqSLdbDPakVJmyCNbUR--1" target="rqSLdbDPakVJmyCNbUR--4">
          <mxGeometry width="50" height="50" relative="1" as="geometry">
            <mxPoint x="410" y="170" as="sourcePoint" />
            <mxPoint x="435" y="120" as="targetPoint" />
          </mxGeometry>
        </mxCell>
        <mxCell id="rqSLdbDPakVJmyCNbUR--4" value="" style="rounded=0;whiteSpace=wrap;html=1;" vertex="1" parent="1">
          <mxGeometry x="323" y="141" width="220" height="60" as="geometry" />
        </mxCell>
        <mxCell id="rqSLdbDPakVJmyCNbUR--5" value="Split Dataset" style="text;html=1;strokeColor=none;fillColor=none;align=center;verticalAlign=middle;whiteSpace=wrap;rounded=0;" vertex="1" parent="1">
          <mxGeometry x="444" y="83" width="80" height="30" as="geometry" />
        </mxCell>
        <mxCell id="rqSLdbDPakVJmyCNbUR--6" value="Train" style="rounded=1;whiteSpace=wrap;html=1;" vertex="1" parent="1">
          <mxGeometry x="334" y="151" width="50" height="40" as="geometry" />
        </mxCell>
        <mxCell id="rqSLdbDPakVJmyCNbUR--7" value="Val" style="rounded=1;whiteSpace=wrap;html=1;" vertex="1" parent="1">
          <mxGeometry x="411" y="151" width="50" height="40" as="geometry" />
        </mxCell>
        <mxCell id="rqSLdbDPakVJmyCNbUR--8" value="Test" style="rounded=1;whiteSpace=wrap;html=1;" vertex="1" parent="1">
          <mxGeometry x="482" y="151" width="50" height="40" as="geometry" />
        </mxCell>
        <mxCell id="rqSLdbDPakVJmyCNbUR--9" value="" style="rounded=0;whiteSpace=wrap;html=1;" vertex="1" parent="1">
          <mxGeometry x="292" y="316" width="300" height="116" as="geometry" />
        </mxCell>
        <mxCell id="rqSLdbDPakVJmyCNbUR--10" value="Preprocess Dataset, Apply one hot encoeing on categorical data and apply normalization on numerical dataset" style="text;html=1;strokeColor=none;fillColor=none;align=center;verticalAlign=middle;whiteSpace=wrap;rounded=0;" vertex="1" parent="1">
          <mxGeometry x="438" y="220" width="177" height="80" as="geometry" />
        </mxCell>
        <mxCell id="rqSLdbDPakVJmyCNbUR--12" value="" style="endArrow=classic;html=1;rounded=0;entryX=0.48;entryY=-0.003;entryDx=0;entryDy=0;entryPerimeter=0;" edge="1" parent="1" target="rqSLdbDPakVJmyCNbUR--9">
          <mxGeometry width="50" height="50" relative="1" as="geometry">
            <mxPoint x="433" y="200" as="sourcePoint" />
            <mxPoint x="436" y="220" as="targetPoint" />
          </mxGeometry>
        </mxCell>
        <mxCell id="rqSLdbDPakVJmyCNbUR--13" value="dictvectorizer" style="rounded=1;whiteSpace=wrap;html=1;" vertex="1" parent="1">
          <mxGeometry x="322" y="326" width="107" height="40" as="geometry" />
        </mxCell>
        <mxCell id="rqSLdbDPakVJmyCNbUR--14" value="StandardScaler" style="rounded=1;whiteSpace=wrap;html=1;" vertex="1" parent="1">
          <mxGeometry x="460" y="326" width="109" height="40" as="geometry" />
        </mxCell>
        <mxCell id="rqSLdbDPakVJmyCNbUR--15" value="X_train" style="rounded=1;whiteSpace=wrap;html=1;" vertex="1" parent="1">
          <mxGeometry x="325" y="380" width="50" height="40" as="geometry" />
        </mxCell>
        <mxCell id="rqSLdbDPakVJmyCNbUR--16" value="X_val" style="rounded=1;whiteSpace=wrap;html=1;" vertex="1" parent="1">
          <mxGeometry x="416" y="382" width="50" height="40" as="geometry" />
        </mxCell>
        <mxCell id="rqSLdbDPakVJmyCNbUR--17" value="X_test" style="rounded=1;whiteSpace=wrap;html=1;" vertex="1" parent="1">
          <mxGeometry x="520" y="382" width="50" height="40" as="geometry" />
        </mxCell>
        <mxCell id="rqSLdbDPakVJmyCNbUR--21" value="" style="rounded=0;whiteSpace=wrap;html=1;" vertex="1" parent="1">
          <mxGeometry x="292" y="514" width="300" height="60" as="geometry" />
        </mxCell>
        <mxCell id="rqSLdbDPakVJmyCNbUR--24" value="" style="edgeStyle=orthogonalEdgeStyle;rounded=0;orthogonalLoop=1;jettySize=auto;html=1;" edge="1" parent="1" source="rqSLdbDPakVJmyCNbUR--9" target="rqSLdbDPakVJmyCNbUR--21">
          <mxGeometry relative="1" as="geometry" />
        </mxCell>
        <mxCell id="rqSLdbDPakVJmyCNbUR--25" value="Resample Train dataset by using SMOTE" style="text;html=1;strokeColor=none;fillColor=none;align=left;verticalAlign=middle;whiteSpace=wrap;rounded=0;" vertex="1" parent="1">
          <mxGeometry x="452" y="460" width="163" height="30" as="geometry" />
        </mxCell>
        <mxCell id="rqSLdbDPakVJmyCNbUR--26" value="X_resampled" style="rounded=1;whiteSpace=wrap;html=1;" vertex="1" parent="1">
          <mxGeometry x="331.5" y="523" width="90" height="40" as="geometry" />
        </mxCell>
        <mxCell id="rqSLdbDPakVJmyCNbUR--27" value="y_resampled" style="rounded=1;whiteSpace=wrap;html=1;" vertex="1" parent="1">
          <mxGeometry x="452" y="523" width="91" height="40" as="geometry" />
        </mxCell>
        <mxCell id="rqSLdbDPakVJmyCNbUR--31" value="Train multiple models" style="text;html=1;strokeColor=none;fillColor=none;align=center;verticalAlign=middle;whiteSpace=wrap;rounded=0;" vertex="1" parent="1">
          <mxGeometry x="600" y="514" width="136" height="30" as="geometry" />
        </mxCell>
        <mxCell id="rqSLdbDPakVJmyCNbUR--65" value="" style="rounded=1;whiteSpace=wrap;html=1;" vertex="1" parent="1">
          <mxGeometry x="730" y="224" width="240" height="360" as="geometry" />
        </mxCell>
        <mxCell id="rqSLdbDPakVJmyCNbUR--66" value="&lt;font style=&quot;font-size: 16px;&quot;&gt;Model Training&lt;/font&gt;" style="text;html=1;strokeColor=none;fillColor=none;align=center;verticalAlign=middle;whiteSpace=wrap;rounded=0;" vertex="1" parent="1">
          <mxGeometry x="783" y="590" width="140" height="30" as="geometry" />
        </mxCell>
        <mxCell id="rqSLdbDPakVJmyCNbUR--68" value="" style="endArrow=classic;html=1;rounded=0;" edge="1" parent="1">
          <mxGeometry width="50" height="50" relative="1" as="geometry">
            <mxPoint x="593" y="544" as="sourcePoint" />
            <mxPoint x="730" y="544" as="targetPoint" />
          </mxGeometry>
        </mxCell>
        <mxCell id="rqSLdbDPakVJmyCNbUR--69" value="" style="endArrow=classic;html=1;rounded=0;exitX=0.425;exitY=0.007;exitDx=0;exitDy=0;exitPerimeter=0;entryX=0;entryY=0.5;entryDx=0;entryDy=0;entryPerimeter=0;" edge="1" parent="1" target="rqSLdbDPakVJmyCNbUR--88">
          <mxGeometry width="50" height="50" relative="1" as="geometry">
            <mxPoint x="844" y="224.51999999999998" as="sourcePoint" />
            <mxPoint x="1050" y="190" as="targetPoint" />
            <Array as="points">
              <mxPoint x="844" y="190" />
            </Array>
          </mxGeometry>
        </mxCell>
        <mxCell id="rqSLdbDPakVJmyCNbUR--70" value="Model 1" style="rounded=1;whiteSpace=wrap;html=1;" vertex="1" parent="1">
          <mxGeometry x="750" y="240" width="50" height="50" as="geometry" />
        </mxCell>
        <mxCell id="rqSLdbDPakVJmyCNbUR--71" value="Model 2" style="rounded=1;whiteSpace=wrap;html=1;" vertex="1" parent="1">
          <mxGeometry x="817" y="239" width="50" height="50" as="geometry" />
        </mxCell>
        <mxCell id="rqSLdbDPakVJmyCNbUR--72" value="Model 3" style="rounded=1;whiteSpace=wrap;html=1;" vertex="1" parent="1">
          <mxGeometry x="890" y="238" width="50" height="50" as="geometry" />
        </mxCell>
        <mxCell id="rqSLdbDPakVJmyCNbUR--73" value="GridSearchCV" style="rounded=1;whiteSpace=wrap;html=1;" vertex="1" parent="1">
          <mxGeometry x="757" y="345" width="180" height="45" as="geometry" />
        </mxCell>
        <mxCell id="rqSLdbDPakVJmyCNbUR--74" value="" style="edgeStyle=orthogonalEdgeStyle;rounded=0;orthogonalLoop=1;jettySize=auto;html=1;" edge="1" parent="1" source="rqSLdbDPakVJmyCNbUR--70" target="rqSLdbDPakVJmyCNbUR--73">
          <mxGeometry relative="1" as="geometry" />
        </mxCell>
        <mxCell id="rqSLdbDPakVJmyCNbUR--75" value="" style="edgeStyle=orthogonalEdgeStyle;rounded=0;orthogonalLoop=1;jettySize=auto;html=1;" edge="1" parent="1" source="rqSLdbDPakVJmyCNbUR--71" target="rqSLdbDPakVJmyCNbUR--73">
          <mxGeometry relative="1" as="geometry" />
        </mxCell>
        <mxCell id="rqSLdbDPakVJmyCNbUR--76" value="" style="edgeStyle=orthogonalEdgeStyle;rounded=0;orthogonalLoop=1;jettySize=auto;html=1;" edge="1" parent="1" source="rqSLdbDPakVJmyCNbUR--72" target="rqSLdbDPakVJmyCNbUR--73">
          <mxGeometry relative="1" as="geometry" />
        </mxCell>
        <mxCell id="rqSLdbDPakVJmyCNbUR--77" value="Model 1" style="rounded=1;whiteSpace=wrap;html=1;" vertex="1" parent="1">
          <mxGeometry x="752" y="462" width="50" height="50" as="geometry" />
        </mxCell>
        <mxCell id="rqSLdbDPakVJmyCNbUR--78" value="Model 2" style="rounded=1;whiteSpace=wrap;html=1;" vertex="1" parent="1">
          <mxGeometry x="819" y="461" width="50" height="50" as="geometry" />
        </mxCell>
        <mxCell id="rqSLdbDPakVJmyCNbUR--79" value="Model 3" style="rounded=1;whiteSpace=wrap;html=1;" vertex="1" parent="1">
          <mxGeometry x="892" y="460" width="50" height="50" as="geometry" />
        </mxCell>
        <mxCell id="rqSLdbDPakVJmyCNbUR--80" value="" style="edgeStyle=orthogonalEdgeStyle;rounded=0;orthogonalLoop=1;jettySize=auto;html=1;" edge="1" parent="1" source="rqSLdbDPakVJmyCNbUR--73" target="rqSLdbDPakVJmyCNbUR--78">
          <mxGeometry relative="1" as="geometry" />
        </mxCell>
        <mxCell id="rqSLdbDPakVJmyCNbUR--81" value="" style="edgeStyle=orthogonalEdgeStyle;rounded=0;orthogonalLoop=1;jettySize=auto;html=1;entryX=0.75;entryY=0;entryDx=0;entryDy=0;exitX=0.5;exitY=1;exitDx=0;exitDy=0;" edge="1" parent="1" source="rqSLdbDPakVJmyCNbUR--73" target="rqSLdbDPakVJmyCNbUR--77">
          <mxGeometry relative="1" as="geometry">
            <mxPoint x="850" y="400" as="sourcePoint" />
            <mxPoint x="829" y="471" as="targetPoint" />
          </mxGeometry>
        </mxCell>
        <mxCell id="rqSLdbDPakVJmyCNbUR--82" value="" style="edgeStyle=orthogonalEdgeStyle;rounded=0;orthogonalLoop=1;jettySize=auto;html=1;entryX=0.5;entryY=0;entryDx=0;entryDy=0;" edge="1" parent="1">
          <mxGeometry relative="1" as="geometry">
            <mxPoint x="847" y="390" as="sourcePoint" />
            <mxPoint x="914" y="460" as="targetPoint" />
            <Array as="points">
              <mxPoint x="847" y="392" />
              <mxPoint x="847" y="425" />
              <mxPoint x="914" y="425" />
            </Array>
          </mxGeometry>
        </mxCell>
        <mxCell id="rqSLdbDPakVJmyCNbUR--84" value="Trained model with best hyperparameters" style="text;html=1;strokeColor=none;fillColor=none;align=center;verticalAlign=middle;whiteSpace=wrap;rounded=0;" vertex="1" parent="1">
          <mxGeometry x="782" y="520" width="130" height="30" as="geometry" />
        </mxCell>
        <mxCell id="rqSLdbDPakVJmyCNbUR--85" value="Model Training" style="text;html=1;strokeColor=none;fillColor=none;align=center;verticalAlign=middle;whiteSpace=wrap;rounded=0;fontSize=30;" vertex="1" parent="1">
          <mxGeometry x="690" y="10" width="280" height="35" as="geometry" />
        </mxCell>
        <mxCell id="rqSLdbDPakVJmyCNbUR--88" value="Model Report" style="rounded=0;whiteSpace=wrap;html=1;" vertex="1" parent="1">
          <mxGeometry x="1060" y="160" width="300" height="60" as="geometry" />
        </mxCell>
        <mxCell id="rqSLdbDPakVJmyCNbUR--89" value="Get Best Model" style="rounded=0;whiteSpace=wrap;html=1;" vertex="1" parent="1">
          <mxGeometry x="1060" y="248" width="300" height="60" as="geometry" />
        </mxCell>
        <mxCell id="rqSLdbDPakVJmyCNbUR--90" value="" style="edgeStyle=orthogonalEdgeStyle;rounded=0;orthogonalLoop=1;jettySize=auto;html=1;" edge="1" parent="1" source="rqSLdbDPakVJmyCNbUR--88" target="rqSLdbDPakVJmyCNbUR--89">
          <mxGeometry relative="1" as="geometry" />
        </mxCell>
        <mxCell id="rqSLdbDPakVJmyCNbUR--91" value="Save Model Artifacts" style="rounded=0;whiteSpace=wrap;html=1;" vertex="1" parent="1">
          <mxGeometry x="1060" y="334" width="300" height="60" as="geometry" />
        </mxCell>
        <mxCell id="rqSLdbDPakVJmyCNbUR--92" value="" style="edgeStyle=orthogonalEdgeStyle;rounded=0;orthogonalLoop=1;jettySize=auto;html=1;" edge="1" parent="1" source="rqSLdbDPakVJmyCNbUR--89" target="rqSLdbDPakVJmyCNbUR--91">
          <mxGeometry relative="1" as="geometry" />
        </mxCell>
        <mxCell id="rqSLdbDPakVJmyCNbUR--93" value="" style="sketch=0;outlineConnect=0;fontColor=#232F3E;gradientColor=none;strokeColor=#ffffff;fillColor=#232F3E;dashed=0;verticalLabelPosition=middle;verticalAlign=bottom;align=center;html=1;whiteSpace=wrap;fontSize=10;fontStyle=1;spacing=3;shape=mxgraph.aws4.productIcon;prIcon=mxgraph.aws4.s3;" vertex="1" parent="1">
          <mxGeometry x="1190" y="470" width="90" height="110" as="geometry" />
        </mxCell>
        <mxCell id="rqSLdbDPakVJmyCNbUR--94" value="" style="edgeStyle=orthogonalEdgeStyle;rounded=0;orthogonalLoop=1;jettySize=auto;html=1;" edge="1" parent="1" source="rqSLdbDPakVJmyCNbUR--91" target="rqSLdbDPakVJmyCNbUR--93">
          <mxGeometry relative="1" as="geometry" />
        </mxCell>
        <mxCell id="rqSLdbDPakVJmyCNbUR--95" value="&lt;font style=&quot;font-size: 20px;&quot;&gt;Model Artifacts&lt;/font&gt;" style="text;html=1;strokeColor=none;fillColor=none;align=center;verticalAlign=middle;whiteSpace=wrap;rounded=0;" vertex="1" parent="1">
          <mxGeometry x="1167" y="579" width="150" height="30" as="geometry" />
        </mxCell>
        <mxCell id="rqSLdbDPakVJmyCNbUR--96" value="9696" style="text;html=1;strokeColor=none;fillColor=none;align=center;verticalAlign=middle;whiteSpace=wrap;rounded=0;" vertex="1" parent="1">
          <mxGeometry x="398" y="1065" width="60" height="30" as="geometry" />
        </mxCell>
      </root>
    </mxGraphModel>
  </diagram>
</mxfile>
